<svg xmlns="http://www.w3.org/2000/svg" viewBox="0 0 900 600">
  <rect width="900" height="600" fill="#003399"/>
  <g fill="#FFCC00" transform="translate(450,300)">
    <polygon points="0,-175 10.2,-136.6 49.4,-136.6 18.4,-113.4 29.6,-75 0,-98.2 -29.6,-75 -18.4,-113.4 -49.4,-136.6 -10.2,-136.6" transform="rotate(0) translate(0,-150) scale(0.35)"/>
    <polygon points="0,-175 10.2,-136.6 49.4,-136.6 18.4,-113.4 29.6,-75 0,-98.2 -29.6,-75 -18.4,-113.4 -49.4,-136.6 -10.2,-136.6" transform="rotate(30) translate(0,-150) scale(0.35)"/>
    <polygon points="0,-175 10.2,-136.6 49.4,-136.6 18.4,-113.4 29.6,-75 0,-98.2 -29.6,-75 -18.4,-113.4 -49.4,-136.6 -10.2,-136.6" transform="rotate(60) translate(0,-150) scale(0.35)"/>
    <polygon points="0,-175 10.2,-136.6 49.4,-136.6 18.4,-113.4 29.6,-75 0,-98.2 -29.6,-75 -18.4,-113.4 -49.4,-136.6 -10.2,-136.6" transform="rotate(90) translate(0,-150) scale(0.35)"/>
    <polygon points="0,-175 10.2,-136.6 49.4,-136.6 18.4,-113.4 29.6,-75 0,-98.2 -29.6,-75 -18.4,-113.4 -49.4,-136.6 -10.2,-136.6" transform="rotate(120) translate(0,-150) scale(0.35)"/>
    <polygon points="0,-175 10.2,-136.6 49.4,-136.6 18.4,-113.4 29.6,-75 0,-98.2 -29.6,-75 -18.4,-113.4 -49.4,-136.6 -10.2,-136.6" transform="rotate(150) translate(0,-150) scale(0.35)"/>
    <polygon points="0,-175 10.2,-136.6 49.4,-136.6 18.4,-113.4 29.6,-75 0,-98.2 -29.6,-75 -18.4,-113.4 -49.4,-136.6 -10.2,-136.6" transform="rotate(180) translate(0,-150) scale(0.35)"/>
    <polygon points="0,-175 10.2,-136.6 49.4,-136.6 18.4,-113.4 29.6,-75 0,-98.2 -29.6,-75 -18.4,-113.4 -49.4,-136.6 -10.2,-136.6" transform="rotate(210) translate(0,-150) scale(0.35)"/>
    <polygon points="0,-175 10.2,-136.6 49.4,-136.6 18.4,-113.4 29.6,-75 0,-98.2 -29.6,-75 -18.4,-113.4 -49.4,-136.6 -10.2,-136.6" transform="rotate(240) translate(0,-150) scale(0.35)"/>
    <polygon points="0,-175 10.2,-136.6 49.4,-136.6 18.4,-113.4 29.6,-75 0,-98.2 -29.6,-75 -18.4,-113.4 -49.4,-136.6 -10.2,-136.6" transform="rotate(270) translate(0,-150) scale(0.35)"/>
    <polygon points="0,-175 10.2,-136.6 49.4,-136.6 18.4,-113.4 29.6,-75 0,-98.2 -29.6,-75 -18.4,-113.4 -49.4,-136.6 -10.2,-136.6" transform="rotate(300) translate(0,-150) scale(0.35)"/>
    <polygon points="0,-175 10.2,-136.6 49.4,-136.6 18.4,-113.4 29.6,-75 0,-98.2 -29.6,-75 -18.4,-113.4 -49.4,-136.6 -10.2,-136.6" transform="rotate(330) translate(0,-150) scale(0.35)"/>
  </g>
</svg>
